<svg xmlns="http://www.w3.org/2000/svg" xmlns:xlink="http://www.w3.org/1999/xlink" width="150" zoomAndPan="magnify" viewBox="0 0 375 374.999991" height="150" preserveAspectRatio="xMidYMid meet" version="1.0"><defs><g/><clipPath id="abfbc7d1be"><path d="M 138.171875 108 L 236.820312 108 L 236.820312 173 L 138.171875 173 Z M 138.171875 108 " clip-rule="nonzero"/></clipPath></defs><g fill="#272727" fill-opacity="1"><g transform="translate(112.200546, 232.204893)"><g><path d="M 5.75 -17.945312 L 16.980469 -17.945312 C 18.179688 -17.945312 18.742188 -18.742188 18.742188 -19.539062 C 18.742188 -20.371094 18.179688 -21.167969 16.980469 -21.167969 L 4.085938 -21.167969 C 2.925781 -21.167969 1.925781 -20.273438 1.925781 -19.207031 L 1.925781 -1.761719 C 1.925781 -0.632812 2.890625 0 3.855469 0 C 4.785156 0 5.75 -0.632812 5.75 -1.792969 L 5.75 -8.140625 L 16.382812 -8.140625 C 17.546875 -8.140625 18.113281 -8.90625 18.113281 -9.703125 C 18.113281 -10.5 17.546875 -11.332031 16.382812 -11.332031 L 5.75 -11.332031 Z M 5.75 -17.945312 "/></g></g></g><g fill="#272727" fill-opacity="1"><g transform="translate(134.260906, 232.204893)"><g><path d="M 1.496094 -19.375 L 1.496094 -1.695312 C 1.496094 -0.53125 2.425781 0 3.421875 0 C 4.386719 0 5.382812 -0.566406 5.382812 -1.695312 L 5.382812 -19.375 C 5.382812 -20.605469 4.386719 -21.167969 3.421875 -21.167969 C 2.425781 -21.167969 1.496094 -20.605469 1.496094 -19.375 Z M 1.496094 -19.375 "/></g></g></g><g fill="#272727" fill-opacity="1"><g transform="translate(143.131838, 232.204893)"><g><path d="M 16.019531 -19.539062 L 16.019531 -8.839844 L 16.152344 -6.613281 L 5.714844 -20.171875 C 5.183594 -20.835938 4.621094 -21.167969 3.789062 -21.167969 C 2.726562 -21.167969 1.761719 -20.472656 1.761719 -19.140625 L 1.761719 -1.761719 C 1.761719 -0.53125 2.726562 0 3.753906 0 C 4.71875 0 5.714844 -0.53125 5.714844 -1.761719 L 5.714844 -12.195312 L 5.582031 -14.058594 L 15.753906 -0.964844 C 16.183594 -0.398438 16.980469 0 17.746094 0 C 18.84375 0 19.972656 -0.664062 19.972656 -1.992188 L 19.972656 -19.539062 C 19.972656 -20.671875 19.042969 -21.167969 18.046875 -21.167969 C 17.046875 -21.167969 16.019531 -20.605469 16.019531 -19.539062 Z M 16.019531 -19.539062 "/></g></g></g><g fill="#272727" fill-opacity="1"><g transform="translate(167.65068, 232.204893)"><g><path d="M 9.804688 -21.167969 L 2.957031 -21.167969 C 1.761719 -21.167969 0.765625 -20.304688 0.765625 -19.242188 L 0.765625 -1.960938 C 0.765625 -0.898438 1.761719 0 2.957031 0 L 9.804688 0 C 15.851562 0 19.871094 -4.21875 19.871094 -10.566406 C 19.871094 -16.914062 15.851562 -21.167969 9.804688 -21.167969 Z M 9.804688 -3.289062 L 4.554688 -3.289062 L 4.554688 -17.914062 L 9.804688 -17.914062 C 13.527344 -17.914062 16.050781 -14.953125 16.050781 -10.566406 C 16.050781 -6.179688 13.527344 -3.289062 9.804688 -3.289062 Z M 9.804688 -3.289062 "/></g></g></g><g fill="#272727" fill-opacity="1"><g transform="translate(191.039953, 232.204893)"><g><path d="M 8.972656 0.332031 C 13.292969 0.332031 17.511719 -1.261719 17.511719 -6.378906 L 17.511719 -8.972656 L 18.011719 -8.972656 C 19.207031 -8.972656 19.773438 -9.769531 19.773438 -10.566406 C 19.773438 -11.433594 19.175781 -12.261719 18.011719 -12.261719 L 9.007812 -12.261719 C 6.613281 -12.261719 4.421875 -12.894531 4.421875 -15.121094 C 4.421875 -17.179688 6.714844 -18.210938 9.039062 -18.210938 C 11.332031 -18.210938 13.660156 -17.613281 13.660156 -15.785156 C 13.660156 -14.6875 14.554688 -14.15625 15.488281 -14.15625 C 16.417969 -14.15625 17.347656 -14.6875 17.347656 -15.785156 C 17.347656 -20.007812 13.09375 -21.5 9.039062 -21.5 C 5.019531 -21.5 0.699219 -19.640625 0.699219 -15.152344 C 0.699219 -13.492188 1.429688 -11.765625 2.890625 -10.800781 C 1.261719 -9.96875 0.265625 -8.308594 0.265625 -6.414062 C 0.265625 -1.128906 4.917969 0.300781 8.972656 0.332031 Z M 9.007812 -8.972656 L 13.890625 -8.972656 L 13.890625 -6.347656 C 13.890625 -3.65625 11.101562 -2.890625 9.007812 -2.890625 C 6.878906 -2.890625 3.921875 -3.722656 3.921875 -6.347656 C 3.921875 -8.640625 6.480469 -8.972656 9.007812 -8.972656 Z M 9.007812 -8.972656 "/></g></g></g><g fill="#272727" fill-opacity="1"><g transform="translate(213.067093, 232.204893)"><g><path d="M 20.40625 -5.117188 L 20.40625 -10.335938 C 20.40625 -11.398438 19.941406 -12.128906 18.410156 -12.128906 L 11.796875 -12.128906 C 10.566406 -12.128906 9.96875 -11.300781 9.96875 -10.433594 C 9.96875 -9.636719 10.535156 -8.839844 11.796875 -8.839844 L 16.648438 -8.839844 L 16.648438 -5.449219 C 15.351562 -3.953125 13.261719 -3.023438 11.332031 -3.023438 C 7.246094 -3.023438 4.519531 -6.214844 4.453125 -10.667969 C 4.453125 -15.152344 7.246094 -18.210938 11.398438 -18.210938 C 13.191406 -18.210938 15.085938 -17.578125 16.515625 -16.085938 C 18.445312 -14.058594 21.234375 -16.351562 19.339844 -18.34375 C 17.378906 -20.4375 14.324219 -21.5 11.398438 -21.5 C 4.953125 -21.5 0.632812 -17.214844 0.632812 -10.765625 C 0.5 -4.152344 4.753906 0.332031 11.300781 0.332031 C 14.421875 0.332031 17.878906 -1.363281 19.90625 -3.722656 C 20.304688 -4.152344 20.40625 -4.6875 20.40625 -5.117188 Z M 20.40625 -5.117188 "/></g></g></g><g fill="#272727" fill-opacity="1"><g transform="translate(238.051054, 232.204893)"><g><path d="M 22.433594 -10.566406 C 22.433594 -17.113281 18.113281 -21.5 11.632812 -21.5 C 5.117188 -21.5 0.730469 -17.113281 0.730469 -10.566406 C 0.730469 -4.019531 5.117188 0.332031 11.632812 0.332031 C 18.113281 0.332031 22.433594 -4.019531 22.433594 -10.566406 Z M 11.632812 -3.058594 C 7.445312 -3.058594 4.652344 -6.082031 4.652344 -10.566406 C 4.652344 -15.085938 7.445312 -18.113281 11.632812 -18.113281 C 15.785156 -18.113281 18.542969 -15.085938 18.542969 -10.566406 C 18.542969 -6.082031 15.785156 -3.058594 11.632812 -3.058594 Z M 11.632812 -3.058594 "/></g></g></g><g clip-path="url(#abfbc7d1be)"><path fill="#0cc0df" d="M 229.339844 165.410156 C 228.425781 169.695312 224.628906 172.792969 220.28125 172.792969 L 174.410156 172.792969 C 170.058594 172.792969 166.265625 169.695312 165.351562 165.410156 L 154.585938 114.503906 C 154.320312 113.222656 153.191406 112.304688 151.894531 112.304688 L 140.382812 112.304688 C 139.253906 112.304688 138.34375 111.382812 138.34375 110.246094 C 138.34375 109.109375 139.253906 108.1875 140.382812 108.1875 L 151.894531 108.1875 C 155.113281 108.1875 157.925781 110.488281 158.597656 113.660156 L 165.277344 145.296875 L 211.414062 145.296875 L 203.917969 137.742188 C 203.125 136.945312 203.125 135.636719 203.917969 134.839844 C 204.710938 134.039062 206.007812 134.039062 206.800781 134.839844 L 217.78125 145.902344 C 218.574219 146.699219 218.574219 148.007812 217.78125 148.804688 L 206.824219 159.84375 C 206.417969 160.253906 205.910156 160.449219 205.382812 160.449219 C 204.855469 160.449219 204.324219 160.253906 203.941406 159.84375 C 203.148438 159.042969 203.148438 157.738281 203.941406 156.9375 L 211.4375 149.386719 L 166.191406 149.386719 L 169.386719 164.5625 C 169.890625 166.960938 172.007812 168.679688 174.433594 168.679688 L 220.304688 168.679688 C 222.730469 168.679688 224.847656 166.9375 225.351562 164.5625 L 232.824219 129.199219 C 232.992188 128.375 232.800781 127.527344 232.273438 126.875 C 231.742188 126.222656 230.949219 125.835938 230.132812 125.835938 L 178.78125 125.835938 L 186.28125 133.386719 C 187.074219 134.183594 187.074219 135.492188 186.28125 136.292969 C 185.871094 136.703125 185.367188 136.894531 184.839844 136.894531 C 184.308594 136.894531 183.78125 136.703125 183.398438 136.292969 L 172.414062 125.230469 C 172.03125 124.839844 171.816406 124.308594 171.816406 123.777344 C 171.816406 123.242188 172.03125 122.710938 172.414062 122.324219 L 183.398438 111.261719 C 184.191406 110.464844 185.488281 110.464844 186.28125 111.261719 C 187.074219 112.0625 187.074219 113.367188 186.28125 114.167969 L 178.78125 121.71875 L 230.109375 121.71875 C 232.175781 121.71875 234.121094 122.664062 235.445312 124.285156 C 236.765625 125.90625 237.246094 128.011719 236.8125 130.070312 Z M 229.339844 165.410156 " fill-opacity="1" fill-rule="nonzero"/></g><path fill="#ff914d" d="M 224.941406 187.21875 C 224.941406 192.59375 220.59375 196.976562 215.257812 196.976562 C 209.925781 196.976562 205.574219 192.59375 205.574219 187.21875 C 205.574219 181.847656 209.925781 177.464844 215.257812 177.464844 C 220.59375 177.464844 224.941406 181.847656 224.941406 187.21875 Z M 209.660156 187.21875 C 209.660156 190.320312 212.160156 192.859375 215.257812 192.859375 C 218.359375 192.859375 220.859375 190.34375 220.859375 187.21875 C 220.859375 184.097656 218.359375 181.582031 215.257812 181.582031 C 212.160156 181.582031 209.660156 184.121094 209.660156 187.21875 Z M 209.660156 187.21875 " fill-opacity="1" fill-rule="nonzero"/><path fill="#ff914d" d="M 189.164062 187.21875 C 189.164062 192.59375 184.8125 196.976562 179.480469 196.976562 C 174.144531 196.976562 169.796875 192.59375 169.796875 187.21875 C 169.796875 181.847656 174.144531 177.464844 179.480469 177.464844 C 184.8125 177.464844 189.164062 181.847656 189.164062 187.21875 Z M 173.882812 187.21875 C 173.882812 190.320312 176.378906 192.859375 179.480469 192.859375 C 182.578125 192.859375 185.078125 190.34375 185.078125 187.21875 C 185.078125 184.097656 182.578125 181.582031 179.480469 181.582031 C 176.378906 181.582031 173.882812 184.121094 173.882812 187.21875 Z M 173.882812 187.21875 " fill-opacity="1" fill-rule="nonzero"/></svg>