<svg xmlns="http://www.w3.org/2000/svg" xmlns:xlink="http://www.w3.org/1999/xlink" width="500" zoomAndPan="magnify" viewBox="0 0 375 374.999991" height="500" preserveAspectRatio="xMidYMid meet" version="1.0"><defs><g/><clipPath id="a296e7a5e7"><path d="M 31.183594 38 L 322.664062 38 L 322.664062 228 L 31.183594 228 Z M 31.183594 38 " clip-rule="nonzero"/></clipPath></defs><rect x="-37.5" width="450" fill="#ffffff" y="-37.499999" height="449.999989" fill-opacity="1"/><rect x="-37.5" width="450" fill="#ffffff" y="-37.499999" height="449.999989" fill-opacity="1"/><rect x="-37.5" width="450" fill="#ffffff" y="-37.499999" height="449.999989" fill-opacity="1"/><g fill="#272727" fill-opacity="1"><g transform="translate(51.200098, 359.270074)"><g><path d="M 10.414062 -32.503906 L 30.757812 -32.503906 C 32.925781 -32.503906 33.949219 -33.949219 33.949219 -35.394531 C 33.949219 -36.898438 32.925781 -38.34375 30.757812 -38.34375 L 7.402344 -38.34375 C 5.296875 -38.34375 3.492188 -36.71875 3.492188 -34.792969 L 3.492188 -3.191406 C 3.492188 -1.144531 5.238281 0 6.984375 0 C 8.667969 0 10.414062 -1.144531 10.414062 -3.25 L 10.414062 -14.746094 L 29.675781 -14.746094 C 31.78125 -14.746094 32.804688 -16.132812 32.804688 -17.578125 C 32.804688 -19.023438 31.78125 -20.527344 29.675781 -20.527344 L 10.414062 -20.527344 Z M 10.414062 -32.503906 "/></g></g></g><g fill="#272727" fill-opacity="1"><g transform="translate(91.165247, 359.270074)"><g><path d="M 2.707031 -35.09375 L 2.707031 -3.070312 C 2.707031 -0.964844 4.394531 0 6.199219 0 C 7.945312 0 9.75 -1.023438 9.75 -3.070312 L 9.75 -35.09375 C 9.75 -37.320312 7.945312 -38.34375 6.199219 -38.34375 C 4.394531 -38.34375 2.707031 -37.320312 2.707031 -35.09375 Z M 2.707031 -35.09375 "/></g></g></g><g fill="#272727" fill-opacity="1"><g transform="translate(107.235947, 359.270074)"><g><path d="M 29.015625 -35.394531 L 29.015625 -16.011719 L 29.253906 -11.980469 L 10.355469 -36.539062 C 9.390625 -37.742188 8.367188 -38.34375 6.863281 -38.34375 C 4.9375 -38.34375 3.191406 -37.082031 3.191406 -34.671875 L 3.191406 -3.191406 C 3.191406 -0.964844 4.9375 0 6.800781 0 C 8.546875 0 10.355469 -0.964844 10.355469 -3.191406 L 10.355469 -22.089844 L 10.113281 -25.460938 L 28.53125 -1.746094 C 29.316406 -0.722656 30.757812 0 32.144531 0 C 34.128906 0 36.175781 -1.203125 36.175781 -3.613281 L 36.175781 -35.394531 C 36.175781 -37.441406 34.492188 -38.34375 32.6875 -38.34375 C 30.878906 -38.34375 29.015625 -37.320312 29.015625 -35.394531 Z M 29.015625 -35.394531 "/></g></g></g><g fill="#272727" fill-opacity="1"><g transform="translate(151.654979, 359.270074)"><g><path d="M 17.757812 -38.34375 L 5.355469 -38.34375 C 3.191406 -38.34375 1.382812 -36.777344 1.382812 -34.851562 L 1.382812 -3.550781 C 1.382812 -1.625 3.191406 0 5.355469 0 L 17.757812 0 C 28.714844 0 35.996094 -7.644531 35.996094 -19.140625 C 35.996094 -30.640625 28.714844 -38.34375 17.757812 -38.34375 Z M 17.757812 -5.960938 L 8.246094 -5.960938 L 8.246094 -32.445312 L 17.757812 -32.445312 C 24.5 -32.445312 29.074219 -27.085938 29.074219 -19.140625 C 29.074219 -11.195312 24.5 -5.960938 17.757812 -5.960938 Z M 17.757812 -5.960938 "/></g></g></g><g fill="#272727" fill-opacity="1"><g transform="translate(194.02763, 359.270074)"><g><path d="M 16.253906 0.601562 C 24.078125 0.601562 31.722656 -2.289062 31.722656 -11.558594 L 31.722656 -16.253906 L 32.625 -16.253906 C 34.792969 -16.253906 35.816406 -17.699219 35.816406 -19.140625 C 35.816406 -20.707031 34.734375 -22.210938 32.625 -22.210938 L 16.3125 -22.210938 C 11.980469 -22.210938 8.007812 -23.355469 8.007812 -27.390625 C 8.007812 -31.121094 12.160156 -32.988281 16.371094 -32.988281 C 20.527344 -32.988281 24.738281 -31.902344 24.738281 -28.59375 C 24.738281 -26.605469 26.367188 -25.644531 28.050781 -25.644531 C 29.738281 -25.644531 31.421875 -26.605469 31.421875 -28.59375 C 31.421875 -36.238281 23.71875 -38.945312 16.371094 -38.945312 C 9.089844 -38.945312 1.265625 -35.574219 1.265625 -27.449219 C 1.265625 -24.4375 2.589844 -21.308594 5.238281 -19.5625 C 2.289062 -18.058594 0.480469 -15.046875 0.480469 -11.617188 C 0.480469 -2.046875 8.910156 0.542969 16.253906 0.601562 Z M 16.3125 -16.253906 L 25.160156 -16.253906 L 25.160156 -11.496094 C 25.160156 -6.621094 20.105469 -5.238281 16.3125 -5.238281 C 12.460938 -5.238281 7.101562 -6.742188 7.101562 -11.496094 C 7.101562 -15.652344 11.738281 -16.253906 16.3125 -16.253906 Z M 16.3125 -16.253906 "/></g></g></g><g fill="#272727" fill-opacity="1"><g transform="translate(233.932592, 359.270074)"><g><path d="M 36.960938 -9.269531 L 36.960938 -18.71875 C 36.960938 -20.648438 36.117188 -21.972656 33.347656 -21.972656 L 21.371094 -21.972656 C 19.140625 -21.972656 18.058594 -20.464844 18.058594 -18.902344 C 18.058594 -17.457031 19.082031 -16.011719 21.371094 -16.011719 L 30.15625 -16.011719 L 30.15625 -9.871094 C 27.808594 -7.164062 24.019531 -5.476562 20.527344 -5.476562 C 13.121094 -5.476562 8.1875 -11.257812 8.066406 -19.324219 C 8.066406 -27.449219 13.121094 -32.988281 20.648438 -32.988281 C 23.898438 -32.988281 27.328125 -31.84375 29.917969 -29.132812 C 33.410156 -25.460938 38.464844 -29.617188 35.035156 -33.226562 C 31.480469 -37.019531 25.945312 -38.945312 20.648438 -38.945312 C 8.96875 -38.945312 1.144531 -31.179688 1.144531 -19.503906 C 0.902344 -7.523438 8.609375 0.601562 20.464844 0.601562 C 26.125 0.601562 32.386719 -2.46875 36.058594 -6.742188 C 36.777344 -7.523438 36.960938 -8.488281 36.960938 -9.269531 Z M 36.960938 -9.269531 "/></g></g></g><g fill="#272727" fill-opacity="1"><g transform="translate(279.194246, 359.270074)"><g><path d="M 40.632812 -19.140625 C 40.632812 -31 32.804688 -38.945312 21.066406 -38.945312 C 9.269531 -38.945312 1.324219 -31 1.324219 -19.140625 C 1.324219 -7.285156 9.269531 0.601562 21.066406 0.601562 C 32.804688 0.601562 40.632812 -7.285156 40.632812 -19.140625 Z M 21.066406 -5.539062 C 13.484375 -5.539062 8.425781 -11.015625 8.425781 -19.140625 C 8.425781 -27.328125 13.484375 -32.804688 21.066406 -32.804688 C 28.59375 -32.804688 33.589844 -27.328125 33.589844 -19.140625 C 33.589844 -11.015625 28.59375 -5.539062 21.066406 -5.539062 Z M 21.066406 -5.539062 "/></g></g></g><g clip-path="url(#a296e7a5e7)"><path fill="#0cc0df" d="M 299.578125 206.296875 C 296.886719 218.828125 285.699219 227.890625 272.882812 227.890625 L 137.699219 227.890625 C 124.882812 227.890625 113.695312 218.828125 111.003906 206.296875 L 79.277344 57.402344 C 78.5 53.648438 75.171875 50.957031 71.347656 50.957031 L 37.429688 50.957031 C 34.101562 50.957031 31.410156 48.265625 31.410156 44.941406 C 31.410156 41.613281 34.101562 38.921875 37.429688 38.921875 L 71.347656 38.921875 C 80.835938 38.921875 89.121094 45.648438 91.105469 54.921875 L 110.789062 147.460938 L 246.75 147.460938 L 224.660156 125.371094 C 222.320312 123.035156 222.320312 119.210938 224.660156 116.875 C 226.996094 114.539062 230.820312 114.539062 233.15625 116.875 L 265.515625 149.230469 C 267.855469 151.566406 267.855469 155.390625 265.515625 157.726562 L 233.226562 190.011719 C 232.023438 191.214844 230.535156 191.78125 228.976562 191.78125 C 227.421875 191.78125 225.863281 191.214844 224.730469 190.011719 C 222.390625 187.675781 222.390625 183.851562 224.730469 181.515625 L 246.824219 159.425781 L 113.480469 159.425781 L 122.898438 203.816406 C 124.386719 210.828125 130.617188 215.855469 137.769531 215.855469 L 272.953125 215.855469 C 280.105469 215.855469 286.335938 210.757812 287.824219 203.816406 L 309.847656 100.375 C 310.34375 97.96875 309.777344 95.492188 308.21875 93.578125 C 306.660156 91.667969 304.324219 90.535156 301.914062 90.535156 L 150.585938 90.535156 L 172.679688 112.625 C 175.019531 114.960938 175.019531 118.785156 172.679688 121.121094 C 171.476562 122.324219 169.992188 122.890625 168.433594 122.890625 C 166.875 122.890625 165.316406 122.324219 164.183594 121.121094 L 131.824219 88.765625 C 130.6875 87.632812 130.050781 86.074219 130.050781 84.515625 C 130.050781 82.960938 130.6875 81.402344 131.824219 80.269531 L 164.183594 47.914062 C 166.519531 45.578125 170.34375 45.578125 172.679688 47.914062 C 175.019531 50.25 175.019531 54.074219 172.679688 56.410156 L 150.585938 78.5 L 301.84375 78.5 C 307.933594 78.5 313.671875 81.261719 317.566406 86.003906 C 321.460938 90.746094 322.875 96.90625 321.601562 102.925781 Z M 299.578125 206.296875 " fill-opacity="1" fill-rule="nonzero"/></g><path fill="#ff914d" d="M 286.621094 270.085938 C 286.621094 285.804688 273.800781 298.621094 258.082031 298.621094 C 242.363281 298.621094 229.542969 285.804688 229.542969 270.085938 C 229.542969 254.371094 242.363281 241.554688 258.082031 241.554688 C 273.800781 241.554688 286.621094 254.371094 286.621094 270.085938 Z M 241.582031 270.085938 C 241.582031 279.148438 248.945312 286.585938 258.082031 286.585938 C 267.21875 286.585938 274.582031 279.222656 274.582031 270.085938 C 274.582031 260.953125 267.21875 253.589844 258.082031 253.589844 C 248.945312 253.589844 241.582031 261.023438 241.582031 270.085938 Z M 241.582031 270.085938 " fill-opacity="1" fill-rule="nonzero"/><path fill="#ff914d" d="M 181.179688 270.085938 C 181.179688 285.804688 168.363281 298.621094 152.640625 298.621094 C 136.921875 298.621094 124.105469 285.804688 124.105469 270.085938 C 124.105469 254.371094 136.921875 241.554688 152.640625 241.554688 C 168.363281 241.554688 181.179688 254.371094 181.179688 270.085938 Z M 136.140625 270.085938 C 136.140625 279.148438 143.507812 286.585938 152.640625 286.585938 C 161.777344 286.585938 169.140625 279.222656 169.140625 270.085938 C 169.140625 260.953125 161.777344 253.589844 152.640625 253.589844 C 143.507812 253.589844 136.140625 261.023438 136.140625 270.085938 Z M 136.140625 270.085938 " fill-opacity="1" fill-rule="nonzero"/></svg>