<svg xmlns="http://www.w3.org/2000/svg" xmlns:xlink="http://www.w3.org/1999/xlink" width="500" zoomAndPan="magnify" viewBox="0 0 375 374.999991" height="500" preserveAspectRatio="xMidYMid meet" version="1.0"><defs><g/></defs><rect x="-37.5" width="450" fill="#ffffff" y="-37.499999" height="449.999989" fill-opacity="1"/><rect x="-37.5" width="450" fill="#ffffff" y="-37.499999" height="449.999989" fill-opacity="1"/><rect x="-37.5" width="450" fill="#ffffff" y="-37.499999" height="449.999989" fill-opacity="1"/><g fill="#272727" fill-opacity="1"><g transform="translate(9.448318, 354.469226)"><g><path d="M 13.59375 -42.425781 L 40.148438 -42.425781 C 42.976562 -42.425781 44.3125 -44.3125 44.3125 -46.199219 C 44.3125 -48.160156 42.976562 -50.046875 40.148438 -50.046875 L 9.664062 -50.046875 C 6.914062 -50.046875 4.558594 -47.925781 4.558594 -45.410156 L 4.558594 -4.164062 C 4.558594 -1.492188 6.835938 0 9.113281 0 C 11.3125 0 13.59375 -1.492188 13.59375 -4.242188 L 13.59375 -19.25 L 38.734375 -19.25 C 41.484375 -19.25 42.820312 -21.054688 42.820312 -22.941406 C 42.820312 -24.828125 41.484375 -26.792969 38.734375 -26.792969 L 13.59375 -26.792969 Z M 13.59375 -42.425781 "/></g></g></g><g fill="#272727" fill-opacity="1"><g transform="translate(61.611076, 354.469226)"><g><path d="M 3.535156 -45.804688 L 3.535156 -4.007812 C 3.535156 -1.257812 5.734375 0 8.09375 0 C 10.371094 0 12.726562 -1.335938 12.726562 -4.007812 L 12.726562 -45.804688 C 12.726562 -48.710938 10.371094 -50.046875 8.09375 -50.046875 C 5.734375 -50.046875 3.535156 -48.710938 3.535156 -45.804688 Z M 3.535156 -45.804688 "/></g></g></g><g fill="#272727" fill-opacity="1"><g transform="translate(82.586652, 354.469226)"><g><path d="M 37.871094 -46.199219 L 37.871094 -20.898438 L 38.183594 -15.636719 L 13.511719 -47.691406 C 12.257812 -49.261719 10.921875 -50.046875 8.957031 -50.046875 C 6.441406 -50.046875 4.164062 -48.398438 4.164062 -45.253906 L 4.164062 -4.164062 C 4.164062 -1.257812 6.441406 0 8.878906 0 C 11.15625 0 13.511719 -1.257812 13.511719 -4.164062 L 13.511719 -28.835938 L 13.199219 -33.234375 L 37.242188 -2.277344 C 38.261719 -0.941406 40.148438 0 41.953125 0 C 44.546875 0 47.21875 -1.570312 47.21875 -4.714844 L 47.21875 -46.199219 C 47.21875 -48.867188 45.019531 -50.046875 42.660156 -50.046875 C 40.304688 -50.046875 37.871094 -48.710938 37.871094 -46.199219 Z M 37.871094 -46.199219 "/></g></g></g><g fill="#272727" fill-opacity="1"><g transform="translate(140.562646, 354.469226)"><g><path d="M 23.175781 -50.046875 L 6.992188 -50.046875 C 4.164062 -50.046875 1.808594 -48.003906 1.808594 -45.488281 L 1.808594 -4.636719 C 1.808594 -2.121094 4.164062 0 6.992188 0 L 23.175781 0 C 37.476562 0 46.984375 -9.976562 46.984375 -24.984375 C 46.984375 -39.992188 37.476562 -50.046875 23.175781 -50.046875 Z M 23.175781 -7.777344 L 10.761719 -7.777344 L 10.761719 -42.347656 L 23.175781 -42.347656 C 31.976562 -42.347656 37.949219 -35.355469 37.949219 -24.984375 C 37.949219 -14.613281 31.976562 -7.777344 23.175781 -7.777344 Z M 23.175781 -7.777344 "/></g></g></g><g fill="#272727" fill-opacity="1"><g transform="translate(195.867691, 354.469226)"><g><path d="M 21.214844 0.785156 C 31.425781 0.785156 41.40625 -2.984375 41.40625 -15.085938 L 41.40625 -21.214844 L 42.582031 -21.214844 C 45.410156 -21.214844 46.746094 -23.097656 46.746094 -24.984375 C 46.746094 -27.027344 45.332031 -28.992188 42.582031 -28.992188 L 21.292969 -28.992188 C 15.636719 -28.992188 10.449219 -30.484375 10.449219 -35.746094 C 10.449219 -40.617188 15.871094 -43.054688 21.371094 -43.054688 C 26.792969 -43.054688 32.289062 -41.640625 32.289062 -37.320312 C 32.289062 -34.726562 34.414062 -33.46875 36.613281 -33.46875 C 38.8125 -33.46875 41.011719 -34.726562 41.011719 -37.320312 C 41.011719 -47.296875 30.957031 -50.832031 21.371094 -50.832031 C 11.863281 -50.832031 1.648438 -46.433594 1.648438 -35.828125 C 1.648438 -31.898438 3.378906 -27.8125 6.835938 -25.535156 C 2.984375 -23.570312 0.628906 -19.640625 0.628906 -15.164062 C 0.628906 -2.671875 11.628906 0.707031 21.214844 0.785156 Z M 21.292969 -21.214844 L 32.839844 -21.214844 L 32.839844 -15.007812 C 32.839844 -8.640625 26.242188 -6.835938 21.292969 -6.835938 C 16.261719 -6.835938 9.269531 -8.800781 9.269531 -15.007812 C 9.269531 -20.425781 15.320312 -21.214844 21.292969 -21.214844 Z M 21.292969 -21.214844 "/></g></g></g><g fill="#272727" fill-opacity="1"><g transform="translate(247.951892, 354.469226)"><g><path d="M 48.238281 -12.097656 L 48.238281 -24.433594 C 48.238281 -26.949219 47.140625 -28.675781 43.527344 -28.675781 L 27.890625 -28.675781 C 24.984375 -28.675781 23.570312 -26.710938 23.570312 -24.671875 C 23.570312 -22.785156 24.90625 -20.898438 27.890625 -20.898438 L 39.363281 -20.898438 L 39.363281 -12.886719 C 36.296875 -9.347656 31.347656 -7.148438 26.792969 -7.148438 C 17.128906 -7.148438 10.683594 -14.691406 10.527344 -25.21875 C 10.527344 -35.828125 17.128906 -43.054688 26.949219 -43.054688 C 31.191406 -43.054688 35.667969 -41.5625 39.046875 -38.027344 C 43.605469 -33.234375 50.203125 -38.65625 45.726562 -43.367188 C 41.089844 -48.320312 33.863281 -50.832031 26.949219 -50.832031 C 11.707031 -50.832031 1.492188 -40.699219 1.492188 -25.457031 C 1.179688 -9.820312 11.234375 0.785156 26.710938 0.785156 C 34.097656 0.785156 42.269531 -3.222656 47.0625 -8.800781 C 48.003906 -9.820312 48.238281 -11.078125 48.238281 -12.097656 Z M 48.238281 -12.097656 "/></g></g></g><g fill="#272727" fill-opacity="1"><g transform="translate(307.027682, 354.469226)"><g><path d="M 53.03125 -24.984375 C 53.03125 -40.460938 42.820312 -50.832031 27.5 -50.832031 C 12.097656 -50.832031 1.726562 -40.460938 1.726562 -24.984375 C 1.726562 -9.507812 12.097656 0.785156 27.5 0.785156 C 42.820312 0.785156 53.03125 -9.507812 53.03125 -24.984375 Z M 27.5 -7.226562 C 17.597656 -7.226562 11 -14.378906 11 -24.984375 C 11 -35.667969 17.597656 -42.820312 27.5 -42.820312 C 37.320312 -42.820312 43.839844 -35.667969 43.839844 -24.984375 C 43.839844 -14.378906 37.320312 -7.226562 27.5 -7.226562 Z M 27.5 -7.226562 "/></g></g></g><path fill="#0cc0df" d="M 308.277344 196.023438 C 305.628906 208.339844 294.613281 217.246094 281.992188 217.246094 L 148.894531 217.246094 C 136.277344 217.246094 125.261719 208.339844 122.613281 196.023438 L 91.375 49.679688 C 90.609375 45.988281 87.332031 43.347656 83.566406 43.347656 L 50.171875 43.347656 C 46.894531 43.347656 44.246094 40.703125 44.246094 37.429688 C 44.246094 34.160156 46.894531 31.515625 50.171875 31.515625 L 83.566406 31.515625 C 92.910156 31.515625 101.066406 38.125 103.019531 47.242188 L 122.402344 138.195312 L 256.265625 138.195312 L 234.511719 116.484375 C 232.210938 114.1875 232.210938 110.429688 234.511719 108.132812 C 236.8125 105.835938 240.578125 105.835938 242.878906 108.132812 L 274.742188 139.933594 C 277.042969 142.230469 277.042969 145.988281 274.742188 148.285156 L 242.949219 180.015625 C 241.765625 181.199219 240.300781 181.757812 238.765625 181.757812 C 237.234375 181.757812 235.699219 181.199219 234.582031 180.015625 C 232.28125 177.722656 232.28125 173.964844 234.582031 171.667969 L 256.335938 149.957031 L 125.050781 149.957031 L 134.324219 193.585938 C 135.789062 200.476562 141.925781 205.417969 148.964844 205.417969 L 282.0625 205.417969 C 289.105469 205.417969 295.242188 200.40625 296.703125 193.585938 L 318.386719 91.917969 C 318.875 89.550781 318.316406 87.117188 316.785156 85.238281 C 315.25 83.359375 312.949219 82.246094 310.578125 82.246094 L 161.585938 82.246094 L 183.339844 103.957031 C 185.640625 106.253906 185.640625 110.011719 183.339844 112.308594 C 182.152344 113.492188 180.6875 114.046875 179.15625 114.046875 C 177.621094 114.046875 176.085938 113.492188 174.972656 112.308594 L 143.109375 80.507812 C 141.992188 79.390625 141.367188 77.863281 141.367188 76.332031 C 141.367188 74.800781 141.992188 73.269531 143.109375 72.15625 L 174.972656 40.351562 C 177.273438 38.058594 181.039062 38.058594 183.339844 40.351562 C 185.640625 42.648438 185.640625 46.40625 183.339844 48.703125 L 161.585938 70.414062 L 310.507812 70.414062 C 316.503906 70.414062 322.152344 73.128906 325.988281 77.792969 C 329.820312 82.453125 331.214844 88.507812 329.960938 94.421875 Z M 308.277344 196.023438 " fill-opacity="1" fill-rule="nonzero"/><path fill="#ff914d" d="M 295.519531 258.722656 C 295.519531 274.171875 282.898438 286.765625 267.421875 286.765625 C 251.945312 286.765625 239.324219 274.171875 239.324219 258.722656 C 239.324219 243.273438 251.945312 230.675781 267.421875 230.675781 C 282.898438 230.675781 295.519531 243.273438 295.519531 258.722656 Z M 251.175781 258.722656 C 251.175781 267.628906 258.429688 274.9375 267.421875 274.9375 C 276.414062 274.9375 283.667969 267.699219 283.667969 258.722656 C 283.667969 249.746094 276.414062 242.507812 267.421875 242.507812 C 258.429688 242.507812 251.175781 249.8125 251.175781 258.722656 Z M 251.175781 258.722656 " fill-opacity="1" fill-rule="nonzero"/><path fill="#ff914d" d="M 191.703125 258.722656 C 191.703125 274.171875 179.085938 286.765625 163.605469 286.765625 C 148.128906 286.765625 135.511719 274.171875 135.511719 258.722656 C 135.511719 243.273438 148.128906 230.675781 163.605469 230.675781 C 179.085938 230.675781 191.703125 243.273438 191.703125 258.722656 Z M 147.363281 258.722656 C 147.363281 267.628906 154.613281 274.9375 163.605469 274.9375 C 172.601562 274.9375 179.851562 267.699219 179.851562 258.722656 C 179.851562 249.746094 172.601562 242.507812 163.605469 242.507812 C 154.613281 242.507812 147.363281 249.8125 147.363281 258.722656 Z M 147.363281 258.722656 " fill-opacity="1" fill-rule="nonzero"/></svg>